<svg xmlns="http://www.w3.org/2000/svg" height="203" viewBox="0 0 190 203" >
  <path d="M81.7552 0.174561C91.04 -0.333682 100.902 0.443342 110.221 0.334717C118.842 1.78824 117.373 10.7886 119.362 17.0261C119.425 17.2264 119.446 17.4399 119.649 17.5632C132.679 21.4767 144.858 28.3373 154.682 37.8455C158.012 37.0314 161.272 35.3655 164.565 34.5183C168.632 33.4708 172.194 35.0194 174.451 38.5144C179.413 46.2049 183.344 55.1135 188.265 62.8943C192.281 71.3524 183.999 75.3107 179.033 80.2332L178.838 80.5925C179.728 84.6125 180.646 88.6555 181.138 92.7546C181.843 98.6312 181.773 104.52 180.999 110.387C180.507 114.115 179.659 117.787 178.838 121.448C178.866 121.711 179.198 121.962 179.383 122.142C184.457 127.08 192.341 130.922 188.128 139.419C183.647 146.857 179.668 154.624 175.185 162.057C172.671 166.225 169.762 168.886 164.536 167.554C161.313 166.733 158.044 165.11 154.815 164.208C153.216 165.521 151.746 166.987 150.157 168.311C141.215 175.764 130.672 181.198 119.571 184.535C118.594 187.921 118.323 191.533 117.435 194.932C116.376 198.993 113.329 201.601 109.155 201.865C100.01 202.443 90.2784 201.414 81.0736 201.865C79.1922 201.701 77.3009 201.076 75.8334 199.859C71.5648 196.318 72.4608 189.37 70.6517 184.542C57.5996 180.606 45.3912 173.742 35.556 164.203C32.4353 165.068 29.4479 166.475 26.349 167.388C22.2164 168.607 18.5787 167.484 16.0482 163.941C11.8192 155.816 6.51082 147.972 2.37439 139.834C-2.09958 131.033 5.11792 127.7 10.4388 122.556C10.6754 122.328 11.3554 121.728 11.3939 121.444C10.5256 117.325 9.57538 113.205 9.09216 109.011C7.98589 99.4276 9.07088 90.0199 11.3998 80.7234C11.4232 80.374 11.138 80.1891 10.9183 79.9685C6.3894 75.4143 -1.41144 71.6584 1.61462 63.7839C6.36518 55.7193 10.6599 47.0908 15.5922 39.157C18.0645 35.1811 21.4057 33.2975 26.1068 34.6267C29.2493 35.5162 32.3659 37.0298 35.5502 37.8494C45.4563 28.3502 57.65 21.392 70.7679 17.5466L70.7631 17.5427C71.5768 14.2556 71.9577 10.7727 72.766 7.49487C73.9377 2.75476 76.9596 0.438053 81.7552 0.174561ZM78.3422 24.0759C74.6782 25.0335 71.0329 26.0591 67.4906 27.4089C56.1112 31.7461 45.8343 38.868 37.6195 47.9031L23.3734 43.0388L9.63513 66.95L20.8969 77.3845C18.0375 87.1432 16.6409 97.3021 17.5219 107.505C18.0305 113.403 19.4057 119.184 20.9135 124.878L9.64099 134.996L23.2552 159.053L37.723 154.252C48.4594 166.209 62.8205 174.426 78.3998 177.999L81.2865 193.019L108.931 193.007L111.938 178.039C127.385 174.306 141.824 166.33 152.41 154.297L166.964 159.044L180.613 135.11L169.348 124.761C172.562 113.988 173.793 102.873 172.416 91.6482C171.819 86.7699 170.628 81.9938 169.353 77.2683L180.591 67.2439L180.587 66.9548L166.979 42.9734L152.538 47.8699C141.893 35.8405 127.506 27.7608 111.997 24.0701L108.929 9.02808L81.2865 9.01636L78.3422 24.0759ZM134.076 69.9529C136.45 69.7724 140.152 69.7737 142.527 69.9597C148.599 70.4334 148.599 78.3173 142.734 78.7947H142.736L142.729 122.461C143.277 122.775 143.832 122.682 144.462 122.941C148.38 124.557 147.8 130.626 143.421 131.325C141.55 131.623 135.205 131.612 133.298 131.35C129.614 130.844 128.185 126.138 131.08 123.652C132.043 122.827 132.821 122.713 134.022 122.471L134.014 78.7927C128.13 78.5145 127.919 70.4228 134.076 69.9529ZM54.5052 72.2986C56.3582 68.991 61.0269 69.2565 62.4476 72.8201L77.8383 123.761C78.1562 126.684 77.8875 130.882 74.2543 131.374C70.3523 131.9 68.7157 128.451 69.1244 125L67.1 118.285H67.1019L49.766 118.264L47.5277 125.274C48.1343 128.922 45.6415 132.44 41.7758 131.173C38.299 130.034 38.6969 125.611 39.1166 122.688L54.5052 72.2986ZM90.3461 69.9558C97.7361 70.7772 108.971 67.9652 115.334 72.2449C123.82 77.9522 120.356 88.6676 121.076 97.3621C121.03 102.811 114.952 109.435 109.557 109.435H95.184L95.182 109.437V127.313C95.1817 127.564 94.9098 128.426 94.7972 128.717C93.1965 132.88 87.0074 132.031 86.4769 127.434L86.4564 74.1609C86.629 71.9547 88.1408 70.2101 90.3461 69.9558ZM52.2631 109.437H64.39L58.3256 89.5583L52.2631 109.437ZM95.1781 100.743L95.182 100.741H108.465C110.767 100.741 112.328 98.371 112.49 96.2605C112.758 92.7559 112.749 86.7854 112.49 83.2751C112.366 81.5956 111.648 79.9731 110.082 79.2253C109.9 79.1386 108.987 78.7937 108.872 78.7937H95.1781V100.743Z" />
</svg>