<svg width="201" height="200" viewBox="0 0 201 200" xmlns="http://www.w3.org/2000/svg">
<path d="M82.0027 0.166016C91.3165 -0.337109 112.228 0.431745 121.576 0.324219C130.224 1.76292 128.75 10.6723 130.745 16.8467C130.808 17.045 130.83 17.2558 131.033 17.3779C144.104 21.2518 156.32 28.0432 166.175 37.4551C169.515 36.6493 172.785 35.0007 176.089 34.1621C180.168 33.125 183.741 34.6577 186.005 38.1172C190.983 45.7298 194.926 54.548 199.862 62.25C203.891 70.6228 195.584 74.5413 190.601 79.4141L190.406 79.7695C191.299 83.7489 192.22 87.7508 192.714 91.8086C193.421 97.6257 193.35 103.455 192.574 109.263C192.08 112.952 191.23 116.587 190.406 120.211C190.433 120.471 190.767 120.72 190.953 120.898C196.043 125.786 203.951 129.589 199.725 138C195.23 145.363 191.239 153.052 186.742 160.409C184.22 164.534 181.302 167.168 176.059 165.851C172.827 165.038 169.548 163.431 166.308 162.538C164.705 163.838 163.23 165.289 161.635 166.6C152.666 173.977 142.09 179.356 130.954 182.659C129.974 186.011 129.703 189.586 128.812 192.951C127.75 196.971 124.693 199.553 120.506 199.813C111.332 200.386 90.5528 199.367 81.3191 199.813C79.4316 199.651 77.5344 199.033 76.0623 197.828C71.7803 194.322 72.679 187.446 70.864 182.666C57.7713 178.77 45.5256 171.976 35.6599 162.533C32.5294 163.39 29.5323 164.782 26.4236 165.687C22.2781 166.893 18.6289 165.782 16.0906 162.274C11.8484 154.232 6.52406 146.467 2.37476 138.411C-2.11304 129.7 5.12618 126.4 10.4636 121.309C10.7009 121.082 11.3844 120.488 11.4226 120.207C10.5516 116.129 9.59774 112.051 9.11304 107.9C8.00334 98.4136 9.09229 89.1009 11.4285 79.8984C11.4516 79.5527 11.1654 79.3699 10.9451 79.1514C6.40199 74.6433 -1.42356 70.9256 1.61206 63.1309C6.37741 55.1479 10.686 46.6065 15.6335 38.7529C18.1135 34.8177 21.4651 32.9531 26.1804 34.2686C29.3329 35.149 32.4597 36.6477 35.6541 37.459C45.591 28.0561 57.8225 21.1688 70.9812 17.3623L70.9763 17.3584C71.7926 14.1046 72.1743 10.6568 72.9851 7.41211C74.1605 2.72 77.1921 0.426839 82.0027 0.166016ZM78.5789 23.8252C74.9034 24.7731 71.2465 25.7878 67.6931 27.124C56.2784 31.4172 45.9696 38.4676 37.7292 47.4111L23.4392 42.5957L9.65796 66.2646L20.9548 76.5938C18.0866 86.2537 16.6854 96.3099 17.5691 106.409C18.0793 112.248 19.459 117.97 20.9714 123.606L9.66382 133.622L23.3201 157.436L37.8328 152.683C48.6025 164.519 63.0085 172.653 78.6365 176.189L81.532 191.058L120.282 191.045L123.298 176.229C138.792 172.533 153.277 164.639 163.895 152.728L178.496 157.426L192.186 133.735L180.886 123.491C184.11 112.827 185.346 101.824 183.965 90.7129C183.365 85.8839 182.171 81.1562 180.891 76.4785L192.165 66.5557L192.161 66.2695L178.51 42.5312L164.025 47.3779C153.346 35.4702 138.914 27.4726 123.357 23.8193L120.28 8.92969L81.532 8.91797L78.5789 23.8252ZM140.754 71.8262C143.135 71.6475 146.849 71.6489 149.231 71.833C155.323 72.3015 155.323 80.1058 149.439 80.5781H149.441L149.434 123.803C149.984 124.114 150.541 124.021 151.173 124.278C155.103 125.877 154.522 131.886 150.129 132.577C148.252 132.872 141.886 132.86 139.974 132.602C136.279 132.1 134.845 127.442 137.75 124.981C138.715 124.165 139.496 124.051 140.7 123.812L140.692 80.5762C134.79 80.3007 134.579 72.2915 140.754 71.8262ZM60.9363 74.1484C62.795 70.8743 67.479 71.1375 68.9041 74.665L84.3425 125.091C84.6613 127.984 84.3912 132.139 80.7468 132.626C76.8329 133.147 75.1915 129.732 75.6013 126.316L73.5701 119.669H73.573L56.1824 119.649L53.9373 126.588C54.5456 130.199 52.0453 133.681 48.1677 132.427C44.6801 131.3 45.0788 126.921 45.4998 124.028L60.9363 74.1484ZM96.8894 71.8291C104.303 72.642 115.571 69.8593 121.955 74.0957C130.467 79.7452 126.993 90.3516 127.715 98.958C127.669 104.352 121.572 110.909 116.16 110.909H101.742L101.74 110.911V128.606C101.739 128.855 101.467 129.707 101.354 129.995C99.7486 134.117 93.5397 133.276 93.0076 128.726L92.9871 75.9922C93.1602 73.8083 94.6772 72.0807 96.8894 71.8291ZM58.6873 110.911H70.8523L64.7693 91.2334L58.6873 110.911ZM101.736 102.305L101.74 102.303H115.064C117.373 102.303 118.939 99.9572 119.101 97.8682C119.371 94.3991 119.362 88.4884 119.101 85.0137C118.977 83.3513 118.258 81.745 116.687 81.0049C116.505 80.9193 115.59 80.5788 115.473 80.5781H101.736V102.305Z" fill="#007DFF"/>
</svg>
