<svg xmlns="http://www.w3.org/2000/svg" width="176" height="176" viewBox="0 0 176 176" fill="#ffffff">
<path d="M0.333374 175.667L16.5834 119.833C13.9445 114.139 11.9653 108.306 10.6459 102.333C9.32643 96.3611 8.66671 90.25 8.66671 84C8.66671 72.4722 10.8542 61.6388 15.2292 51.5C19.6042 41.3611 25.5417 32.5416 33.0417 25.0416C40.5417 17.5416 49.3611 11.6041 59.5 7.22913C69.6389 2.85413 80.4723 0.666626 92 0.666626C103.528 0.666626 114.361 2.85413 124.5 7.22913C134.639 11.6041 143.458 17.5416 150.958 25.0416C158.458 32.5416 164.396 41.3611 168.771 51.5C173.146 61.6388 175.333 72.4722 175.333 84C175.333 95.5277 173.146 106.361 168.771 116.5C164.396 126.639 158.458 135.458 150.958 142.958C143.458 150.458 134.639 156.396 124.5 160.771C114.361 165.146 103.528 167.333 92 167.333C85.75 167.333 79.6389 166.674 73.6667 165.354C67.6945 164.035 61.8612 162.056 56.1667 159.417L0.333374 175.667ZM24.9167 151.083L51.5834 143.167C53.5278 142.611 55.507 142.403 57.5209 142.542C59.5348 142.681 61.4445 143.167 63.25 144C67.6945 146.222 72.3473 147.889 77.2084 149C82.0695 150.111 87 150.667 92 150.667C110.611 150.667 126.375 144.208 139.292 131.292C152.208 118.375 158.667 102.611 158.667 84C158.667 65.3888 152.208 49.625 139.292 36.7083C126.375 23.7916 110.611 17.3333 92 17.3333C73.3889 17.3333 57.625 23.7916 44.7084 36.7083C31.7917 49.625 25.3334 65.3888 25.3334 84C25.3334 89 25.8889 93.9305 27 98.7916C28.1112 103.653 29.7778 108.306 32 112.75C32.9723 114.556 33.4931 116.465 33.5625 118.479C33.632 120.493 33.3889 122.472 32.8334 124.417L24.9167 151.083ZM83.6667 117.333H100.333V92.3333H125.333V75.6666H100.333V50.6666H83.6667V75.6666H58.6667V92.3333H83.6667V117.333Z" />
</svg>