<svg width="199" height="200" viewBox="0 0 199 200" xmlns="http://www.w3.org/2000/svg">
<path d="M34.6298 95.3257L31.9314 81.0268C30.1324 80.2324 28.4459 79.3983 26.8718 78.5245C25.2977 77.6507 23.6862 76.5783 22.0371 75.3073L8.99475 79.5969L0 63.3916L10.344 53.859C10.0441 51.7936 9.89423 49.7282 9.89423 47.6628C9.89423 45.5974 10.0441 43.532 10.344 41.4667L0 31.9341L8.99475 15.7287L22.0371 20.0184C23.6862 18.7474 25.2977 17.675 26.8718 16.8011C28.4459 15.9273 30.1324 15.0932 31.9314 14.2988L34.6298 0H52.6193L55.3177 14.2988C57.1167 15.0932 58.8032 15.9273 60.3773 16.8011C61.9514 17.675 63.5629 18.7474 65.212 20.0184L78.2544 15.7287L87.2491 31.9341L76.9051 41.4667C77.205 43.532 77.3549 45.5974 77.3549 47.6628C77.3549 49.7282 77.205 51.7936 76.9051 53.859L87.2491 63.3916L78.2544 79.5969L65.212 75.3073C63.5629 76.5783 61.9514 77.6507 60.3773 78.5245C58.8032 79.3983 57.1167 80.2324 55.3177 81.0268L52.6193 95.3257H34.6298ZM43.6246 66.728C48.5717 66.728 52.8067 64.8612 56.3296 61.1276C59.8526 57.394 61.6141 52.9057 61.6141 47.6628C61.6141 42.4199 59.8526 37.9317 56.3296 34.1981C52.8067 30.4645 48.5717 28.5977 43.6246 28.5977C38.6774 28.5977 34.4424 30.4645 30.9195 34.1981C27.3965 37.9317 25.635 42.4199 25.635 47.6628C25.635 52.9057 27.3965 57.394 30.9195 61.1276C34.4424 64.8612 38.6774 66.728 43.6246 66.728ZM126.693 200L122.645 179.982C120.097 179.028 117.735 177.877 115.562 176.526C113.388 175.176 111.252 173.627 109.153 171.879L91.1635 178.075L78.5708 155.197L92.9624 141.851C92.6626 138.992 92.5127 136.132 92.5127 133.272C92.5127 130.412 92.6626 127.553 92.9624 124.693L78.5708 111.347L91.1635 88.469L109.153 94.6651C111.252 92.9175 113.388 91.3685 115.562 90.018C117.735 88.6676 120.097 87.5157 122.645 86.5625L126.693 66.5441H151.878L155.926 86.5625C158.474 87.5157 160.835 88.6676 163.009 90.018C165.183 91.3685 167.319 92.9175 169.418 94.6651L187.407 88.469L200 111.347L185.608 124.693C185.908 127.553 186.058 130.412 186.058 133.272C186.058 136.132 185.908 138.992 185.608 141.851L200 155.197L187.407 178.075L169.418 171.879C167.319 173.627 165.183 175.176 163.009 176.526C160.835 177.877 158.474 179.028 155.926 179.982L151.878 200H126.693ZM139.285 161.87C146.781 161.87 153.152 159.089 158.399 153.529C163.646 147.968 166.27 141.216 166.27 133.272C166.27 125.328 163.646 118.576 158.399 113.015C153.152 107.455 146.781 104.674 139.285 104.674C131.79 104.674 125.419 107.455 120.172 113.015C114.925 118.576 112.301 125.328 112.301 133.272C112.301 141.216 114.925 147.968 120.172 153.529C125.419 159.089 131.79 161.87 139.285 161.87Z" fill="#007DFF"/>
</svg>
