<svg xmlns="http://www.w3.org/2000/svg" height="200" viewBox="0 0 219 200" >
  <path d="M35.688 98.4071L32.9072 83.646C31.0532 82.826 29.3152 81.9649 27.693 81.0629C26.0708 80.1608 24.41 79.0537 22.7106 77.7416L9.26962 82.1699L0 65.4407L10.6601 55.6C10.3511 53.4679 10.1966 51.3357 10.1966 49.2036C10.1966 47.0714 10.3511 44.9392 10.6601 42.8071L0 32.9664L9.26962 16.2372L22.7106 20.6655C24.41 19.3534 26.0708 18.2463 27.693 17.3443C29.3152 16.4422 31.0532 15.5811 32.9072 14.7611L35.688 0H54.2273L57.0082 14.7611C58.8621 15.5811 60.6001 16.4422 62.2223 17.3443C63.8445 18.2463 65.5053 19.3534 67.2048 20.6655L80.6457 16.2372L89.9153 32.9664L79.2553 42.8071C79.5642 44.9392 79.7187 47.0714 79.7187 49.2036C79.7187 51.3357 79.5642 53.4679 79.2553 55.6L89.9153 65.4407L80.6457 82.1699L67.2048 77.7416C65.5053 79.0537 63.8445 80.1608 62.2223 81.0629C60.6001 81.9649 58.8621 82.826 57.0082 83.646L54.2273 98.4071H35.688ZM44.9577 68.885C50.056 68.885 54.4204 66.9578 58.051 63.1036C61.6816 59.2493 63.4969 54.6159 63.4969 49.2036C63.4969 43.7912 61.6816 39.1578 58.051 35.3035C54.4204 31.4493 50.056 29.5221 44.9577 29.5221C39.8594 29.5221 35.4949 31.4493 31.8643 35.3035C28.2337 39.1578 26.4184 43.7912 26.4184 49.2036C26.4184 54.6159 28.2337 59.2493 31.8643 63.1036C35.4949 66.9578 39.8594 68.885 44.9577 68.885ZM135.453 193L131.281 172.334C128.655 171.35 126.222 170.161 123.981 168.767C121.741 167.373 119.54 165.774 117.377 163.97L98.8376 170.366L85.8601 146.749L100.692 132.972C100.383 130.019 100.228 127.067 100.228 124.115C100.228 121.163 100.383 118.211 100.692 115.258L85.8601 101.481L98.8376 77.8637L117.377 84.2601C119.54 82.456 121.741 80.8569 123.981 79.4628C126.222 78.0687 128.655 76.8796 131.281 75.8955L135.453 55.23H161.408L165.579 75.8955C168.205 76.8796 170.639 78.0687 172.879 79.4628C175.119 80.8569 177.32 82.456 179.483 84.2601L198.023 77.8637L211 101.481L196.169 115.258C196.478 118.211 196.632 121.163 196.632 124.115C196.632 127.067 196.478 130.019 196.169 132.972L211 146.749L198.023 170.366L179.483 163.97C177.32 165.774 175.119 167.373 172.879 168.767C170.639 170.161 168.205 171.35 165.579 172.334L161.408 193H135.453ZM148.43 153.637C156.155 153.637 162.721 150.767 168.128 145.027C173.535 139.286 176.239 132.316 176.239 124.115C176.239 115.914 173.535 108.944 168.128 103.204C162.721 97.4631 156.155 94.5929 148.43 94.5929C140.705 94.5929 134.139 97.4631 128.732 103.204C123.325 108.944 120.621 115.914 120.621 124.115C120.621 132.316 123.325 139.286 128.732 145.027C134.139 150.767 140.705 153.637 148.43 153.637Z" />
</svg>