<svg width="200" height="200" viewBox="0 0 200 200" fill="#ffffff" xmlns="http://www.w3.org/2000/svg">
<mask id="mask0_1005_317" style="mask-type:alpha" maskUnits="userSpaceOnUse" x="0" y="0" width="200" height="200">
<rect width="200" height="200" />
</mask>
<g mask="url(#mask0_1005_317)">
<path d="M75 166.667H41.6667C37.0833 166.667 33.1597 165.035 29.8958 161.771C26.6319 158.507 25 154.583 25 150V33.3333C25 28.75 26.6319 24.8263 29.8958 21.5625C33.1597 18.2986 37.0833 16.6666 41.6667 16.6666H158.333C162.917 16.6666 166.84 18.2986 170.104 21.5625C173.368 24.8263 175 28.75 175 33.3333V150C175 154.583 173.368 158.507 170.104 161.771C166.84 165.035 162.917 166.667 158.333 166.667H125L105.833 185.833C104.167 187.5 102.222 188.333 100 188.333C97.7778 188.333 95.8333 187.5 94.1667 185.833L75 166.667ZM41.6667 150H81.6667L100 168.333L118.333 150H158.333V33.3333H41.6667V150ZM99.1667 141.667C102.083 141.667 104.549 140.66 106.563 138.646C108.576 136.632 109.583 134.167 109.583 131.25C109.583 128.333 108.576 125.868 106.563 123.854C104.549 121.84 102.083 120.833 99.1667 120.833C96.25 120.833 93.7847 121.84 91.7708 123.854C89.7569 125.868 88.75 128.333 88.75 131.25C88.75 134.167 89.7569 136.632 91.7708 138.646C93.7847 140.66 96.25 141.667 99.1667 141.667ZM113.75 66.6666C113.75 69.0277 112.986 71.5625 111.458 74.2708C109.931 76.9791 107.361 79.9305 103.75 83.125C101.389 85.2083 99.4792 87.1875 98.0208 89.0625C96.5625 90.9375 95.3472 92.8472 94.375 94.7916C93.8194 95.9027 93.4028 97.0138 93.125 98.125C92.8472 99.2361 92.5694 100.486 92.2917 101.875C92.0139 103.958 92.5694 105.764 93.9583 107.292C95.3472 108.819 97.1528 109.583 99.375 109.583C101.319 109.583 103.056 108.889 104.583 107.5C106.111 106.111 107.153 104.236 107.708 101.875C108.125 99.9305 108.924 98.125 110.104 96.4583C111.285 94.7916 113.194 92.6388 115.833 90C120.694 85.1388 124.132 81.0416 126.146 77.7083C128.16 74.375 129.167 70.6944 129.167 66.6666C129.167 59.1666 126.632 53.125 121.563 48.5416C116.493 43.9583 109.583 41.6666 100.833 41.6666C94.5833 41.6666 89.1667 42.9861 84.5833 45.625C80 48.2638 76.3194 51.9444 73.5417 56.6666C72.5694 58.3333 72.5347 60.0694 73.4375 61.875C74.3403 63.6805 75.7639 64.9305 77.7083 65.625C79.5139 66.3194 81.3194 66.3194 83.125 65.625C84.9306 64.9305 86.3889 63.8194 87.5 62.2916C89.0278 60.3472 90.9028 58.7847 93.125 57.6041C95.3472 56.4236 97.9167 55.8333 100.833 55.8333C104.444 55.8333 107.5 56.8402 110 58.8541C112.5 60.868 113.75 63.4722 113.75 66.6666Z"/>
</g>
</svg>
