<svg height="236" viewBox="0 0 236 236" xmlns="http://www.w3.org/2000/svg">
    <g>
        <path d="M0 189.293V161.513C0 154.465 3.60556 148.729 10.8167 144.304C18.0278 139.879 27.5333 137.667 39.3333 137.667C41.4639 137.667 43.5125 137.708 45.4792 137.79C47.4458 137.872 49.3306 138.076 51.1333 138.404C48.8389 141.846 47.1181 145.451 45.9708 149.221C44.8236 152.99 44.25 156.924 44.25 161.021V189.293H0ZM59 189.293V161.021C59 155.776 60.434 150.983 63.3021 146.64C66.1701 142.297 70.2264 138.486 75.4708 135.208C80.7153 131.931 86.984 129.472 94.2771 127.833C101.57 126.194 109.478 125.375 118 125.375C126.686 125.375 134.676 126.194 141.969 127.833C149.262 129.472 155.531 131.931 160.775 135.208C166.019 138.486 170.035 142.297 172.821 146.64C175.607 150.983 177 155.776 177 161.021V189.293H59ZM191.75 189.293V161.021C191.75 156.76 191.217 152.744 190.152 148.975C189.087 145.206 187.489 141.682 185.358 138.404C187.161 138.076 189.005 137.872 190.89 137.79C192.774 137.708 194.7 137.667 196.667 137.667C208.467 137.667 217.972 139.838 225.183 144.181C232.394 148.524 236 154.301 236 161.513V189.293H191.75ZM79.8958 157.333H156.35C154.711 154.056 150.163 151.188 142.706 148.729C135.249 146.271 127.014 145.042 118 145.042C108.986 145.042 100.751 146.271 93.2938 148.729C85.8368 151.188 81.3708 154.056 79.8958 157.333ZM39.3333 127.833C33.925 127.833 29.2951 125.908 25.4438 122.056C21.5924 118.205 19.6667 113.575 19.6667 108.167C19.6667 102.594 21.5924 97.9236 25.4438 94.1542C29.2951 90.3847 33.925 88.5 39.3333 88.5C44.9056 88.5 49.5764 90.3847 53.3458 94.1542C57.1153 97.9236 59 102.594 59 108.167C59 113.575 57.1153 118.205 53.3458 122.056C49.5764 125.908 44.9056 127.833 39.3333 127.833ZM196.667 127.833C191.258 127.833 186.628 125.908 182.777 122.056C178.926 118.205 177 113.575 177 108.167C177 102.594 178.926 97.9236 182.777 94.1542C186.628 90.3847 191.258 88.5 196.667 88.5C202.239 88.5 206.91 90.3847 210.679 94.1542C214.449 97.9236 216.333 102.594 216.333 108.167C216.333 113.575 214.449 118.205 210.679 122.056C206.91 125.908 202.239 127.833 196.667 127.833ZM118 118C109.806 118 102.84 115.132 97.1042 109.396C91.3681 103.66 88.5 96.6944 88.5 88.5C88.5 80.1417 91.3681 73.1354 97.1042 67.4812C102.84 61.8271 109.806 59 118 59C126.358 59 133.365 61.8271 139.019 67.4812C144.673 73.1354 147.5 80.1417 147.5 88.5C147.5 96.6944 144.673 103.66 139.019 109.396C133.365 115.132 126.358 118 118 118ZM118 98.3333C120.786 98.3333 123.122 97.391 125.006 95.5063C126.891 93.6215 127.833 91.2861 127.833 88.5C127.833 85.7139 126.891 83.3785 125.006 81.4938C123.122 79.609 120.786 78.6667 118 78.6667C115.214 78.6667 112.878 79.609 110.994 81.4938C109.109 83.3785 108.167 85.7139 108.167 88.5C108.167 91.2861 109.109 93.6215 110.994 95.5063C112.878 97.391 115.214 98.3333 118 98.3333Z"/>
    </g>
</svg>
