<svg height="202" viewBox="0 0 202 202" xmlns="http://www.w3.org/2000/svg">
    <g>
        <path d="M108.991 184.376V167.577C114.871 166.737 120.575 165.127 126.105 162.747C131.635 160.367 136.85 157.357 141.75 153.717L153.93 165.897C147.35 171.077 140.28 175.242 132.72 178.392C125.16 181.541 117.251 183.536 108.991 184.376ZM165.69 153.717L153.93 141.957C157.57 137.337 160.51 132.263 162.75 126.733C164.99 121.203 166.529 115.358 167.369 109.198H184.589C183.469 117.878 181.334 125.963 178.184 133.452C175.034 140.942 170.869 147.697 165.69 153.717ZM167.369 92.3984C166.529 86.0985 164.99 80.1836 162.75 74.6538C160.51 69.1239 157.57 64.119 153.93 59.6391L165.69 47.8793C171.009 54.0392 175.314 60.899 178.604 68.4589C181.894 76.0187 183.889 83.9986 184.589 92.3984H167.369ZM92.1911 184.376C70.7715 181.856 52.8869 172.687 38.5372 156.867C24.1875 141.047 17.0127 122.358 17.0127 100.798C17.0127 79.0987 24.1875 60.3391 38.5372 44.5194C52.8869 28.6997 70.7715 19.5999 92.1911 17.22V34.0196C75.3914 36.3996 61.4617 43.8894 50.402 56.4891C39.3422 69.0889 33.8123 83.8586 33.8123 100.798C33.8123 117.738 39.3422 132.473 50.402 145.002C61.4617 157.532 75.3914 165.057 92.1911 167.577V184.376ZM142.17 47.8793C137.13 44.0994 131.81 41.0195 126.21 38.6395C120.61 36.2596 114.871 34.7196 108.991 34.0196V17.22C117.251 17.92 125.16 19.8449 132.72 22.9948C140.28 26.1448 147.35 30.3797 153.93 35.6996L142.17 47.8793ZM100.801 142.797C92.6811 135.937 85.0512 128.588 77.9114 120.748C70.7715 112.908 67.2016 103.738 67.2016 93.2384C67.2016 83.7186 70.4566 75.5987 76.9664 68.8789C83.4763 62.159 91.4211 58.7991 100.801 58.7991C110.181 58.7991 118.126 62.159 124.635 68.8789C131.145 75.5987 134.4 83.7186 134.4 93.2384C134.4 103.738 130.83 112.908 123.69 120.748C116.551 128.588 108.921 135.937 100.801 142.797ZM100.801 100.798C103.321 100.798 105.456 99.9232 107.206 98.1732C108.956 96.4233 109.831 94.2883 109.831 91.7684C109.831 89.3884 108.956 87.2885 107.206 85.4685C105.456 83.6486 103.321 82.7386 100.801 82.7386C98.281 82.7386 96.146 83.6486 94.396 85.4685C92.6461 87.2885 91.7711 89.3884 91.7711 91.7684C91.7711 94.2883 92.6461 96.4233 94.396 98.1732C96.146 99.9232 98.281 100.798 100.801 100.798Z"/>
    </g>
</svg>
