<svg width="156" height="161" viewBox="0 0 156 161"  xmlns="http://www.w3.org/2000/svg">
<path d="M123.688 62.2275C117.716 61.1164 108.167 61.7414 95.0422 64.1025C81.9172 66.4636 67.1602 75.6303 50.7714 91.6025C55.2158 75.3525 64.1741 62.2969 77.6464 52.4358C91.1186 42.5747 106.327 37.6442 123.271 37.6442L111.605 25.9775C110.077 24.4497 109.313 22.5053 109.313 20.1442C109.313 17.7831 110.077 15.8386 111.605 14.3108C113.132 12.7831 115.077 12.0192 117.438 12.0192C119.799 12.0192 121.744 12.7831 123.271 14.3108L153.271 44.3108C154.938 45.9775 155.771 47.9219 155.771 50.1442C155.771 52.3664 154.938 54.3108 153.271 55.9775L123.271 85.9775C121.744 87.5053 119.799 88.2692 117.438 88.2692C115.077 88.2692 113.132 87.5053 111.605 85.9775C110.077 84.4497 109.313 82.5053 109.313 80.1442C109.313 77.7831 110.077 75.8386 111.605 74.3108L123.688 62.2275ZM0.771362 68.4775C0.771362 49.5886 7.2297 33.4775 20.1464 20.1442C33.063 6.81083 48.8269 0.144165 67.438 0.144165C71.0491 0.144165 74.5908 0.421943 78.063 0.977498C81.5353 1.53305 84.938 2.36639 88.2714 3.4775C90.4936 4.17194 92.1255 5.56083 93.1672 7.64417C94.2089 9.7275 94.3825 11.8803 93.688 14.1025C92.9936 16.3247 91.6047 17.9219 89.5214 18.8942C87.438 19.8664 85.2852 20.0053 83.063 19.3108C80.563 18.4775 77.9936 17.8525 75.3547 17.4358C72.7158 17.0192 70.0769 16.8108 67.438 16.8108C53.4102 16.8108 41.57 21.8456 31.9172 31.915C22.2644 41.9844 17.438 54.1719 17.438 68.4775C17.438 78.3386 21.5353 89.5886 29.7297 102.228C37.9241 114.866 50.4936 128.964 67.438 144.519C75.2158 137.436 82.0908 130.665 88.063 124.207C94.0353 117.748 99.0353 111.464 103.063 105.353C104.313 103.408 106.049 102.228 108.271 101.811C110.494 101.394 112.577 101.811 114.521 103.061C116.466 104.311 117.646 106.082 118.063 108.373C118.48 110.665 118.063 112.783 116.813 114.728C112.369 121.394 106.987 128.165 100.667 135.04C94.3477 141.915 87.1603 149.033 79.1047 156.394C77.438 157.922 75.5977 159.068 73.5839 159.832C71.57 160.596 69.5214 160.978 67.438 160.978C65.3547 160.978 63.2714 160.596 61.188 159.832C59.1047 159.068 57.2297 157.922 55.563 156.394C37.0908 139.589 23.3408 123.894 14.313 109.311C5.28525 94.7275 0.771362 81.1164 0.771362 68.4775Z" />
</svg>
