<svg xmlns="http://www.w3.org/2000/svg" height="196" viewBox="0 0 201 196" >
  <path d="M157.5 109C181.524 109 201 128.476 201 152.5C201 176.524 181.524 196 157.5 196C133.476 196 114 176.524 114 152.5C114 128.476 133.476 109 157.5 109ZM40.0127 106.569C41.9462 104.598 45.0811 104.598 47.0146 106.569L85.5264 145.836C87.4599 147.807 87.4599 151.004 85.5264 152.976L47.0146 192.242C45.0811 194.214 41.9463 194.214 40.0127 192.242L1.50098 152.976C-0.432601 151.004 -0.432601 147.807 1.50098 145.836L40.0127 106.569ZM196 0.00488281C198.761 0.00488281 201 2.24346 201 5.00488V80.4033C201 83.1646 198.761 85.4033 196 85.4033H121C118.239 85.4032 116 83.1646 116 80.4033V5.00488C116 2.24354 118.239 0.00500652 121 0.00488281H196ZM44.5 0C67.9721 8.67355e-06 87 19.1171 87 42.6992C87 66.2813 67.9721 85.3984 44.5 85.3984C21.0279 85.3984 2 66.2813 2 42.6992C2 19.1171 21.0279 0 44.5 0Z" />
</svg>