<svg width="201" height="200" viewBox="0 0 201 200" xmlns="http://www.w3.org/2000/svg">
<path d="M157.471 111.225C181.495 111.225 200.971 131.098 200.971 155.612C200.971 180.127 181.495 200 157.471 200C133.446 200 113.971 180.127 113.971 155.612C113.971 131.098 133.446 111.225 157.471 111.225ZM41.0186 108.707C42.9321 106.716 46.0347 106.716 47.9482 108.707L86.5322 148.851C88.4456 150.841 88.4457 154.069 86.5322 156.06L47.9482 196.203C46.0347 198.194 42.9321 198.194 41.0186 196.203L2.43457 156.06C0.521371 154.069 0.521438 150.841 2.43457 148.851L41.0186 108.707ZM195.971 0.00488281C198.732 0.00509265 200.971 2.24359 200.971 5.00488V82.1465C200.97 84.9076 198.732 87.1463 195.971 87.1465H120.971C118.209 87.1465 115.971 84.9077 115.971 82.1465V5.00488C115.971 2.24346 118.209 0.00488281 120.971 0.00488281H195.971ZM43.4707 0C66.9426 3.80441e-05 85.9705 19.5071 85.9707 43.5703C85.9707 67.6337 66.9427 87.1416 43.4707 87.1416C19.9986 87.1416 0.970703 67.6337 0.970703 43.5703C0.970872 19.5071 19.9987 0 43.4707 0Z" fill="#007DFF"/>
</svg>
