<svg width="200" height="200" viewBox="0 0 200 200" xmlns="http://www.w3.org/2000/svg">
<path d="M200 200H0V177.777H200V200ZM178.831 0C184.283 2.0298e-06 188.951 2.17557 192.834 6.52734C196.717 10.8792 198.658 16.1115 198.658 22.2227V144.444C198.658 150.555 196.717 155.787 192.834 160.139C188.951 164.491 184.283 166.667 178.831 166.667H20.2168C14.7644 166.667 10.0966 164.491 6.21387 160.139C2.33115 155.787 0.389648 150.555 0.389648 144.444V22.2227C0.389648 16.1115 2.33111 10.8792 6.21387 6.52734C10.0966 2.17569 14.7645 0 20.2168 0H178.831ZM20.2168 144.444H178.831V22.2227H20.2168V144.444ZM59.6035 73.8906H50.2129V80.4639H75.2529V73.8906H65.8633V50.8857H90.9033V73.8906H81.5127V87.0371H50.2129V93.6094H59.6035V116.615H34.5635V93.6094H43.9531V73.8906H34.5635V50.8857H59.6035V73.8906ZM112.463 48.3984C115.31 48.3984 117.815 49.2893 119.978 51.0713C122.14 52.8533 123.605 55.1245 124.371 57.8838H137.921V78.5781H144.901C145.668 75.8189 147.131 73.5476 149.294 71.7656C151.456 69.9836 153.962 69.0928 156.809 69.0928C160.257 69.0928 163.172 70.3434 165.554 72.8438C167.935 75.3443 169.126 78.4058 169.126 82.0273C169.126 85.6487 167.935 88.7095 165.554 91.21C163.172 93.7104 160.257 94.9609 156.809 94.9609C153.962 94.9609 151.456 94.0701 149.294 92.2881C147.132 90.5061 145.668 88.2348 144.901 85.4756H137.921V106.17H124.781V114.793H101.788V90.6494H124.781V99.2725H131.351V64.7812H124.371C123.605 67.5405 122.14 69.8117 119.978 71.5938C117.815 73.3758 115.31 74.2666 112.463 74.2666C109.014 74.2665 106.099 73.016 103.718 70.5156C101.336 68.0151 100.146 64.9544 100.146 61.333C100.146 57.7115 101.336 54.65 103.718 52.1494C106.099 49.6491 109.014 48.3985 112.463 48.3984ZM40.8232 110.042H53.3428V100.183H40.8232V110.042ZM108.357 107.895H118.212V97.5479H108.357V107.895ZM156.809 75.9912C155.221 75.9912 153.865 76.5804 152.743 77.7588C151.621 78.9372 151.06 80.3604 151.06 82.0273C151.06 83.6941 151.621 85.1166 152.743 86.2949C153.865 87.4734 155.221 88.0625 156.809 88.0625C158.396 88.0624 159.751 87.4733 160.873 86.2949C161.995 85.1166 162.557 83.6942 162.557 82.0273C162.557 80.3603 161.995 78.9372 160.873 77.7588C159.751 76.5805 158.396 75.9913 156.809 75.9912ZM112.463 55.2969C110.875 55.297 109.521 55.8861 108.398 57.0645C107.276 58.2429 106.715 59.666 106.715 61.333C106.715 62.9998 107.276 64.4223 108.398 65.6006C109.521 66.7789 110.875 67.3681 112.463 67.3682C114.051 67.3682 115.406 66.779 116.528 65.6006C117.65 64.4223 118.212 62.9998 118.212 61.333C118.212 59.666 117.651 58.2429 116.528 57.0645C115.406 55.886 114.051 55.2969 112.463 55.2969ZM40.8232 67.3174H53.3428V57.458H40.8232V67.3174ZM72.123 67.3174H84.6436V57.458H72.123V67.3174Z" fill="#007DFF"/>
</svg>
