<svg xmlns="http://www.w3.org/2000/svg"  height="200" viewBox="0 0 210 200" >
  <path d="M210 200H0V177.777H210V200ZM187.772 0C193.497 0 198.399 2.17564 202.476 6.52734C206.552 10.8792 208.591 16.1115 208.591 22.2227V144.444C208.591 150.555 206.552 155.787 202.476 160.139C198.399 164.491 193.497 166.667 187.772 166.667H21.2275C15.5025 166.667 10.6013 164.491 6.52441 160.139C2.4476 155.787 0.40918 150.555 0.40918 144.444V22.2227C0.40918 16.1115 2.44752 10.8792 6.52441 6.52734C10.6013 2.17564 15.5026 0 21.2275 0H187.772ZM21.2275 144.444H187.772V22.2227H21.2275V144.444ZM60.4834 73.8906H50.624V80.4639H76.916V73.8906H67.0566V50.8857H93.3486V73.8906H83.4893V87.0371H50.624V93.6094H60.4834V116.615H34.1914V93.6094H44.0508V73.8906H34.1914V50.8857H60.4834V73.8906ZM116.979 48.3984C119.968 48.3984 122.598 49.2894 124.868 51.0713C127.139 52.8533 128.677 55.1245 129.481 57.8838H143.709V78.5781H151.038C151.843 75.8189 153.381 73.5476 155.651 71.7656C157.922 69.9837 160.552 69.0928 163.541 69.0928C167.162 69.0928 170.223 70.3434 172.724 72.8438C175.224 75.3443 176.475 78.4058 176.475 82.0273C176.475 85.6487 175.224 88.7095 172.724 91.21C170.223 93.7104 167.162 94.9609 163.541 94.9609C160.552 94.9609 157.922 94.07 155.651 92.2881C153.381 90.5061 151.843 88.2348 151.038 85.4756H143.709V106.17H129.913V114.793H105.77V90.6494H129.913V99.2725H136.811V64.7812H129.481C128.677 67.5405 127.139 69.8117 124.868 71.5938C122.598 73.3756 119.968 74.2666 116.979 74.2666C113.357 74.2666 110.296 73.0161 107.796 70.5156C105.295 68.0151 104.045 64.9544 104.045 61.333C104.045 57.7115 105.295 54.65 107.796 52.1494C110.296 49.649 113.357 48.3985 116.979 48.3984ZM40.7646 110.042H53.9102V100.183H40.7646V110.042ZM112.667 107.895H123.015V97.5479H112.667V107.895ZM163.541 75.9912C161.874 75.9912 160.451 76.5804 159.272 77.7588C158.094 78.9372 157.505 80.3604 157.505 82.0273C157.505 83.6941 158.094 85.1166 159.272 86.2949C160.451 87.4734 161.874 88.0625 163.541 88.0625C165.208 88.0625 166.631 87.4733 167.81 86.2949C168.988 85.1166 169.577 83.6941 169.577 82.0273C169.577 80.3604 168.988 78.9372 167.81 77.7588C166.631 76.5804 165.208 75.9912 163.541 75.9912ZM116.979 55.2969C115.312 55.2969 113.889 55.8862 112.711 57.0645C111.533 58.2429 110.942 59.666 110.942 61.333C110.942 62.9999 111.533 64.4222 112.711 65.6006C113.889 66.7789 115.312 67.3681 116.979 67.3682C118.646 67.3682 120.069 66.779 121.247 65.6006C122.425 64.4223 123.015 62.9998 123.015 61.333C123.015 59.666 122.425 58.2429 121.247 57.0645C120.069 55.886 118.646 55.2969 116.979 55.2969ZM40.7646 67.3174H53.9102V57.458H40.7646V67.3174ZM73.6289 67.3174H86.7754V57.458H73.6289V67.3174Z" />
</svg>