<svg height="236" viewBox="0 0 236 236" xmlns="http://www.w3.org/2000/svg">
    <g>
        <path d="M118 221.25C106.2 210.105 92.6792 201.583 77.4375 195.683C62.1958 189.783 46.2167 186.833 29.5 186.833V78.6666C46.0528 78.6666 61.95 81.6576 77.1917 87.6395C92.4333 93.6214 106.036 102.267 118 113.575C129.964 102.267 143.567 93.6214 158.808 87.6395C174.05 81.6576 189.947 78.6666 206.5 78.6666V186.833C189.619 186.833 173.599 189.783 158.44 195.683C143.28 201.583 129.8 210.105 118 221.25ZM118 195.683C128.325 187.98 139.306 181.835 150.942 177.246C162.578 172.657 174.542 169.625 186.833 168.15V100.3C174.869 102.43 163.11 106.733 151.556 113.206C140.002 119.68 128.817 128.325 118 139.142C107.183 128.325 95.9979 119.68 84.4437 113.206C72.8896 106.733 61.1306 102.43 49.1667 100.3V168.15C61.4583 169.625 73.4222 172.657 85.0583 177.246C96.6944 181.835 107.675 187.98 118 195.683ZM118 88.4999C107.183 88.4999 97.9236 84.6485 90.2208 76.9458C82.5181 69.243 78.6667 59.9832 78.6667 49.1666C78.6667 38.3499 82.5181 29.0902 90.2208 21.3874C97.9236 13.6846 107.183 9.83325 118 9.83325C128.817 9.83325 138.076 13.6846 145.779 21.3874C153.482 29.0902 157.333 38.3499 157.333 49.1666C157.333 59.9832 153.482 69.243 145.779 76.9458C138.076 84.6485 128.817 88.4999 118 88.4999ZM118 68.8333C123.408 68.8333 128.038 66.9076 131.89 63.0562C135.741 59.2048 137.667 54.5749 137.667 49.1666C137.667 43.7583 135.741 39.1284 131.89 35.277C128.038 31.4256 123.408 29.4999 118 29.4999C112.592 29.4999 107.962 31.4256 104.11 35.277C100.259 39.1284 98.3333 43.7583 98.3333 49.1666C98.3333 54.5749 100.259 59.2048 104.11 63.0562C107.962 66.9076 112.592 68.8333 118 68.8333Z"/>
    </g>
</svg>
