<svg height="236" viewBox="0 0 236 236" xmlns="http://www.w3.org/2000/svg">
    <g>
        <path d="M118 88.5001L83.583 54.0834L118 19.6667L152.416 54.0834L118 88.5001ZM9.83301 196.667V157.333C9.83301 151.761 11.7587 147.09 15.6101 143.321C19.4615 139.551 24.0913 137.667 29.4997 137.667H61.7038C64.9816 137.667 68.0955 138.486 71.0455 140.125C73.9955 141.764 76.3719 143.976 78.1747 146.763C82.9275 153.154 88.7865 158.153 95.7518 161.758C102.717 165.364 110.133 167.167 118 167.167C126.03 167.167 133.528 165.364 140.493 161.758C147.459 158.153 153.236 153.154 157.825 146.763C159.955 143.976 162.455 141.764 165.323 140.125C168.191 138.486 171.182 137.667 174.296 137.667H206.5C212.072 137.667 216.743 139.551 220.512 143.321C224.282 147.09 226.166 151.761 226.166 157.333V196.667H157.333V174.296C151.597 178.393 145.41 181.507 138.773 183.638C132.135 185.768 125.211 186.833 118 186.833C110.952 186.833 104.069 185.727 97.3497 183.515C90.6302 181.302 84.4025 178.147 78.6663 174.05V196.667H9.83301ZM39.333 127.833C31.1386 127.833 24.1733 124.965 18.4372 119.229C12.7011 113.493 9.83301 106.528 9.83301 98.3334C9.83301 89.9751 12.7011 82.9688 18.4372 77.3147C24.1733 71.6605 31.1386 68.8334 39.333 68.8334C47.6913 68.8334 54.6976 71.6605 60.3518 77.3147C66.0059 82.9688 68.833 89.9751 68.833 98.3334C68.833 106.528 66.0059 113.493 60.3518 119.229C54.6976 124.965 47.6913 127.833 39.333 127.833ZM196.666 127.833C188.472 127.833 181.507 124.965 175.771 119.229C170.034 113.493 167.166 106.528 167.166 98.3334C167.166 89.9751 170.034 82.9688 175.771 77.3147C181.507 71.6605 188.472 68.8334 196.666 68.8334C205.025 68.8334 212.031 71.6605 217.685 77.3147C223.339 82.9688 226.166 89.9751 226.166 98.3334C226.166 106.528 223.339 113.493 217.685 119.229C212.031 124.965 205.025 127.833 196.666 127.833Z"/>
    </g>
</svg>
