<svg viewBox="0 0 236 236" height="236px" xmlns="http://www.w3.org/2000/svg">
    <g>
        <path d="M54.0795 121.933L15.7295 83.5833L54.0795 45.2333L92.4295 83.5833L54.0795 121.933ZM88.4962 216.333V167.167C78.4989 166.347 68.5837 165.159 58.7503 163.602C48.917 162.045 39.1656 159.955 29.4962 157.333L34.4128 137.667C48.1795 141.436 61.9871 144.017 75.8357 145.41C89.6844 146.803 103.738 147.5 117.996 147.5C132.254 147.5 146.308 146.803 160.157 145.41C174.005 144.017 187.813 141.436 201.579 137.667L206.496 157.333C196.827 159.955 187.075 162.045 177.242 163.602C167.409 165.159 157.493 166.347 147.496 167.167V216.333H88.4962ZM54.0795 94.3999L64.8962 83.5833L54.0795 72.7666L43.2628 83.5833L54.0795 94.3999ZM117.996 68.8333C109.802 68.8333 102.836 65.9652 97.1003 60.2291C91.3642 54.493 88.4962 47.5277 88.4962 39.3333C88.4962 31.1388 91.3642 24.1735 97.1003 18.4374C102.836 12.7013 109.802 9.83325 117.996 9.83325C126.191 9.83325 133.156 12.7013 138.892 18.4374C144.628 24.1735 147.496 31.1388 147.496 39.3333C147.496 47.5277 144.628 54.493 138.892 60.2291C133.156 65.9652 126.191 68.8333 117.996 68.8333ZM117.996 137.667C112.588 137.667 107.958 135.741 104.107 131.89C100.255 128.038 98.3295 123.408 98.3295 118C98.3295 112.592 100.255 107.962 104.107 104.11C107.958 100.259 112.588 98.3333 117.996 98.3333C123.404 98.3333 128.034 100.259 131.886 104.11C135.737 107.962 137.663 112.592 137.663 118C137.663 123.408 135.737 128.038 131.886 131.89C128.034 135.741 123.404 137.667 117.996 137.667ZM117.996 49.1666C120.782 49.1666 123.118 48.2242 125.002 46.3395C126.887 44.4548 127.829 42.1194 127.829 39.3333C127.829 36.5471 126.887 34.2117 125.002 32.327C123.118 30.4423 120.782 29.4999 117.996 29.4999C115.21 29.4999 112.875 30.4423 110.99 32.327C109.105 34.2117 108.163 36.5471 108.163 39.3333C108.163 42.1194 109.105 44.4548 110.99 46.3395C112.875 48.2242 115.21 49.1666 117.996 49.1666ZM167.655 118L150.938 88.4999L167.655 58.9999H201.088L217.805 88.4999L201.088 118H167.655ZM178.963 98.3333H189.779L195.188 88.4999L189.779 78.6666H178.963L173.555 88.4999L178.963 98.3333Z"/>
    </g>
</svg>
