<svg width="200" height="200" viewBox="0 0 200 200" fill="none" xmlns="http://www.w3.org/2000/svg">
<mask id="mask0_1005_323" style="mask-type:alpha" maskUnits="userSpaceOnUse" x="0" y="0" width="200" height="200">
<rect width="200" height="200" fill="#D9D9D9"/>
</mask>
<g mask="url(#mask0_1005_323)">
<path d="M50 147.5C42.0833 140.278 35.9375 131.84 31.5625 122.187C27.1875 112.535 25 102.361 25 91.6666C25 70.8333 32.2917 53.125 46.875 38.5416C61.4583 23.9583 79.1667 16.6666 100 16.6666C117.361 16.6666 132.743 21.7708 146.146 31.9791C159.549 42.1875 168.264 55.4861 172.292 71.875L183.125 114.583C183.819 117.222 183.333 119.618 181.667 121.771C180 123.924 177.778 125 175 125H158.333V150C158.333 154.583 156.701 158.507 153.437 161.771C150.174 165.035 146.25 166.667 141.667 166.667H125V175C125 177.361 124.201 179.34 122.604 180.937C121.007 182.535 119.028 183.333 116.667 183.333C114.306 183.333 112.326 182.535 110.729 180.937C109.132 179.34 108.333 177.361 108.333 175V158.333C108.333 155.972 109.132 153.993 110.729 152.396C112.326 150.799 114.306 150 116.667 150H141.667V116.667C141.667 114.306 142.465 112.326 144.062 110.729C145.66 109.132 147.639 108.333 150 108.333H164.167L156.25 76.0416C153.056 63.4027 146.25 53.125 135.833 45.2083C125.417 37.2916 113.472 33.3333 100 33.3333C83.8889 33.3333 70.1389 38.9583 58.75 50.2083C47.3611 61.4583 41.6667 75.1389 41.6667 91.25C41.6667 99.5833 43.3681 107.5 46.7708 115C50.1736 122.5 55 129.167 61.25 135L66.6667 140V175C66.6667 177.361 65.8681 179.34 64.2708 180.937C62.6736 182.535 60.6944 183.333 58.3333 183.333C55.9722 183.333 53.9931 182.535 52.3958 180.937C50.7986 179.34 50 177.361 50 175V147.5ZM100 133.333C102.361 133.333 104.34 132.535 105.938 130.937C107.535 129.34 108.333 127.361 108.333 125C108.333 122.639 107.535 120.66 105.938 119.062C104.34 117.465 102.361 116.667 100 116.667C97.6389 116.667 95.6597 117.465 94.0625 119.062C92.4653 120.66 91.6667 122.639 91.6667 125C91.6667 127.361 92.4653 129.34 94.0625 130.937C95.6597 132.535 97.6389 133.333 100 133.333ZM100.625 61.875C103.681 61.875 106.215 62.7083 108.229 64.375C110.243 66.0416 111.25 68.1944 111.25 70.8333C111.25 73.0555 110.66 75.1736 109.479 77.1875C108.299 79.2014 105.972 82.0139 102.5 85.625C99.8611 88.4027 97.9514 90.868 96.7708 93.0208C95.5903 95.1736 94.7917 97.6389 94.375 100.417C94.0972 102.083 94.5486 103.542 95.7292 104.792C96.9097 106.042 98.4028 106.667 100.208 106.667C101.736 106.667 103.16 106.146 104.479 105.104C105.799 104.062 106.667 102.639 107.083 100.833C107.5 99.1666 108.16 97.5347 109.063 95.9375C109.965 94.3402 111.389 92.5 113.333 90.4166C117.778 85.5555 120.694 81.875 122.083 79.375C123.472 76.875 124.167 74.0277 124.167 70.8333C124.167 65 121.91 60.0694 117.396 56.0416C112.882 52.0138 107.292 50 100.625 50C96.1806 50 91.9792 51.0764 88.0208 53.2291C84.0625 55.3819 80.9028 58.3333 78.5417 62.0833C77.7083 63.4722 77.6736 64.9305 78.4375 66.4583C79.2014 67.9861 80.3472 69.0972 81.875 69.7916C83.4028 70.4861 84.8958 70.5902 86.3542 70.1041C87.8125 69.618 89.0972 68.6111 90.2083 67.0833C91.5972 65.4166 93.1944 64.1319 95 63.2291C96.8056 62.3264 98.6806 61.875 100.625 61.875Z" fill="#1C1B1F"/>
</g>
</svg>
