<svg viewBox="0 0 175 175" height="175px" xmlns="http://www.w3.org/2000/svg">
    <g>
        <path d="M87.5 123.959C89.566 123.959 91.2977 123.26 92.6953 121.862C94.0929 120.465 94.7917 118.733 94.7917 116.667C94.7917 114.601 94.0929 112.869 92.6953 111.472C91.2977 110.074 89.566 109.375 87.5 109.375C85.434 109.375 83.7023 110.074 82.3047 111.472C80.9071 112.869 80.2083 114.601 80.2083 116.667C80.2083 118.733 80.9071 120.465 82.3047 121.862C83.7023 123.26 85.434 123.959 87.5 123.959ZM80.2083 94.7919H94.7917V51.0419H80.2083V94.7919ZM60.1562 153.125L21.875 114.844V60.1565L60.1562 21.8752H114.844L153.125 60.1565V114.844L114.844 153.125H60.1562ZM66.3542 138.542H108.646L138.542 108.646V66.3544L108.646 36.4586H66.3542L36.4583 66.3544V108.646L66.3542 138.542Z"/>
    </g>
</svg>
